custom-analysis
version=1
nRows=5
nColumns=42
inDegrees=no

This file contains tibia displacement and acting force.

Units are S.I. units (seconds, meters, Newtons, ...)
Angles are in degrees.

endheader
time	APT	SIT	knee_angle	aACL_R_force	pACL_R_force	aPCL_R_force	pPCL_R_force	aMCL_R_force	mMCL_R_force	pMCL_R_force	aLCL_R_force	mLCL_R_force	pLCL_R_force	aACL_R_length	pACL_R_length	aPCL_R_length	pPCL_R_length	aMCL_R_length	mMCL_R_length	pMCL_R_length	aLCL_R_length	mLCL_R_length	pLCL_R_length	aACL_R_strain	pACL_R_strain	aPCL_R_strain	pPCL_R_strain	aMCL_R_strain	mMCL_R_strain	pMCL_R_strain	aLCL_R_strain	mLCL_R_strain	pLCL_R_strain	femur_lat_meniscii_force_r	femur_lat_meniscii_torque_r	femur_med_meniscii_force_r	femur_med_meniscii_torque_r	femur_lat_tibia_force_r	femur_lat_tibia_torque_r	femur_med_tibia_force_r	femur_med_tibia_torque_r
      0.00000000	      0.00000000	      0.00000000	     89.99998384	      3.75010814	     12.22582684	   1302.60579461	    811.35279875	     36.06478367	      2.10632205	      0.00000000	      0.00000000	      0.00000000	      0.00000000	      0.03169881	      0.02626841	      0.03908174	      0.03581353	      0.06238372	      0.06085633	      0.05779529	      0.05007677	      0.04462342	      0.04000359	      0.02236100	      0.03587379	      0.25683742	      0.19030062	      0.07508098	      0.01777493	     -0.04829258	     -0.10540772	     -0.20766100	     -0.23573691	     84.61636588	     33.31515453	      0.00000000	      0.00000000	      0.00000000	      0.00000000	    535.86461959	     12.84514732
      0.00063894	      0.00002196	      0.00003248	     89.99998384	    -22.65974782	    -26.95504671	   1261.54291844	    715.25828837	    -15.50294171	    -54.37921092	      0.00000000	      0.00000000	      0.00000000	      0.00000000	      0.03167443	      0.02623471	      0.03904571	      0.03577757	      0.06235584	      0.06082602	      0.05776417	      0.05004530	      0.04459136	      0.03997002	      0.02157460	      0.03454461	      0.25567879	      0.18910556	      0.07460052	      0.01726802	     -0.04880501	     -0.10597000	     -0.20823035	     -0.23637839	    297.17331481	    115.26862436	      0.00000000	      0.00000000	      0.00000000	      0.00000000	    855.42383928	     19.94362753
      0.00141584	      0.00009864	      0.00011068	     89.99998384	    -35.69724542	    -52.44406266	   1231.89544980	    664.29672159	    -24.36279337	    -67.16482299	      0.00000000	      0.00000000	      0.00000000	      0.00000000	      0.03160792	      0.02613604	      0.03895447	      0.03568545	      0.06229455	      0.06075666	      0.05769220	      0.04997303	      0.04451723	      0.03989027	      0.01942935	      0.03065365	      0.25274452	      0.18604375	      0.07354426	      0.01610817	     -0.04999012	     -0.10726106	     -0.20954663	     -0.23790204	    389.54492655	    149.59170941	      0.00000000	      0.00000000	      0.00000000	      0.00000000	    884.63961151	     20.22180552
      0.00219273	      0.00021757	      0.00019826	     89.99998384	    -39.23987274	    -65.33783756	   1207.59389678	    632.30398484	    -20.37277439	    -66.09003325	      0.00000000	      0.00000000	      0.00000000	      0.00000000	      0.03152746	      0.02600665	      0.03884545	      0.03557381	      0.06223361	      0.06068342	      0.05761469	      0.04989636	      0.04443773	      0.03980152	      0.01683429	      0.02555128	      0.24923875	      0.18233325	      0.07249396	      0.01488316	     -0.05126644	     -0.10863060	     -0.21095812	     -0.23959756	    433.90017839	    165.95189317	      0.00000000	      0.00000000	      0.00000000	      0.00000000	    788.45432993	     17.88269369
      0.00323417	      0.00042377	      0.00031707	     89.99998384	    -36.86803788	    -71.09354238	   1176.36855853	    596.65932337	    -14.25203526	    -62.74353381	      0.00000000	      0.00000000	      0.00000000	      0.00000000	      0.03142004	      0.02581648	      0.03868746	      0.03540967	      0.06216074	      0.06058901	      0.05751193	      0.04979734	      0.04433362	      0.03968044	      0.01336988	      0.01805231	      0.24415795	      0.17687802	      0.07123821	      0.01330422	     -0.05295853	     -0.11039952	     -0.21280672	     -0.24191067	    485.27292128	    184.82376693	      0.00000000	      0.00000000	      0.00000000	      0.00000000	    652.97217287	     14.91218605
